<svg width="48" height="48" viewBox="0 0 48 48" fill="none" xmlns="http://www.w3.org/2000/svg">
<g clip-path="url(#clip0_173_3017)">
<path d="M6 28.0001C7.66 29.2841 10.154 30.0341 13 30.0001C15.846 30.0341 18.34 29.2841 20 28.0001C21.66 26.7161 24.154 25.9661 27 26.0001C29.846 25.9661 32.34 26.7161 34 28.0001" stroke="#4640DE" stroke-width="3" stroke-linecap="round" stroke-linejoin="round"/>
<path d="M15.9995 6C15.3665 6.45434 14.8537 7.05594 14.5052 7.75285C14.1568 8.44975 13.9832 9.22101 13.9995 10C13.9832 10.779 14.1568 11.5502 14.5052 12.2472C14.8537 12.9441 15.3665 13.5457 15.9995 14" stroke="#4640DE" stroke-width="3" stroke-linecap="round" stroke-linejoin="round"/>
<path d="M23.9995 6C23.3665 6.45434 22.8537 7.05594 22.5052 7.75285C22.1568 8.44975 21.9832 9.22101 21.9995 10C21.9832 10.779 22.1568 11.5502 22.5052 12.2472C22.8537 12.9441 23.3665 13.5457 23.9995 14" stroke="#4640DE" stroke-width="3" stroke-linecap="round" stroke-linejoin="round"/>
<path d="M6 20H34V30C34 33.1826 32.7357 36.2348 30.4853 38.4853C28.2348 40.7357 25.1826 42 22 42H18C14.8174 42 11.7652 40.7357 9.51472 38.4853C7.26428 36.2348 6 33.1826 6 30V20Z" stroke="#4640DE" stroke-width="3" stroke-linecap="round" stroke-linejoin="round"/>
<path d="M33.4921 33.4519C34.3853 33.8619 35.3656 34.0463 36.3467 33.9887C37.3278 33.9312 38.2798 33.6335 39.1189 33.1218C39.9581 32.6102 40.6587 31.9003 41.1591 31.0544C41.6596 30.2086 41.9446 29.2527 41.9892 28.2709C42.0337 27.2891 41.8364 26.3114 41.4146 25.4237C40.9927 24.5361 40.3593 23.7656 39.5699 23.1801C38.7806 22.5945 37.8595 22.2119 36.8876 22.0657C35.9157 21.9196 34.9228 22.0144 33.9961 22.3419" stroke="#4640DE" stroke-width="3" stroke-linecap="round" stroke-linejoin="round"/>
</g>
<defs>
<clipPath id="clip0_173_3017">
<rect width="48" height="48" fill="white"/>
</clipPath>
</defs>
</svg>
