<svg width="48" height="48" viewBox="0 0 48 48" fill="none" xmlns="http://www.w3.org/2000/svg">
<path d="M42.9382 7.19842C42.2534 6.53107 41.348 6.17779 40.3926 6.20185C38.5048 6.25052 36.969 7.85069 36.969 9.76914V18.668C35.7321 18.2327 34.2986 18.5087 33.3113 19.4962L24.5413 28.2661C24.3447 28.4627 24.1647 28.6714 24.0002 28.8897C23.8356 28.6713 23.6555 28.4627 23.459 28.266L14.6891 19.4961C13.7018 18.5087 12.2683 18.2327 11.0313 18.6679V9.71633C11.0313 8.76007 10.6541 7.86585 9.96919 7.19842C9.28442 6.53107 8.37957 6.17763 7.42362 6.20185C5.53587 6.25052 4 7.85069 4 9.76914V22.9114C4 24.1103 4.33907 25.2793 4.98048 26.2919L11.4401 36.4906C12.0332 37.4269 12.3467 38.5077 12.3467 39.616V42.828C12.3467 43.4752 12.8714 43.9999 13.5186 43.9999H34.4819C35.1291 43.9999 35.6538 43.4752 35.6538 42.828V39.616C35.6538 38.5077 35.9672 37.4269 36.5603 36.4907L43.0199 26.292C43.6613 25.2793 44.0003 24.1103 44.0003 22.9114V9.71633C44.0003 8.76015 43.6231 7.86593 42.9382 7.19842ZM13.4202 35.2365L6.96049 25.0378C6.55697 24.4008 6.34377 23.6655 6.34377 22.9114V9.76914C6.34377 9.11031 6.85526 8.56109 7.48401 8.54492C7.80323 8.53718 8.10527 8.6546 8.33347 8.87695C8.56176 9.09945 8.68754 9.39758 8.68754 9.71633V22.0211C8.68754 22.0537 8.6898 22.0857 8.69238 22.1175C8.72504 22.9721 9.06621 23.817 9.71723 24.468L13.9917 28.7425C14.4493 29.2002 15.1913 29.2002 15.649 28.7425C16.1067 28.2848 16.1067 27.5429 15.649 27.0852L11.3745 22.8107C10.9176 22.3538 10.9176 21.6103 11.3745 21.1535C11.8315 20.6966 12.5749 20.6966 13.0319 21.1535L21.8016 29.9232C22.4637 30.5854 22.8283 31.4692 22.8283 32.4118V41.6561H14.6904V39.616C14.6904 38.063 14.2512 36.5486 13.4202 35.2365ZM41.6566 22.9114C41.6566 23.6655 41.4433 24.4008 41.0397 25.0378L34.5802 35.2365C33.7491 36.5485 33.3099 38.063 33.3099 39.616V41.6561H25.172V32.4118C25.172 31.4692 25.5367 30.5854 26.1986 29.9233L34.9685 21.1534C35.4256 20.6965 36.1689 20.6965 36.6258 21.1534C37.0805 21.5899 37.0805 22.3744 36.6255 22.811L32.3513 27.088C31.8939 27.5458 31.8941 28.2877 32.3519 28.7452C32.8095 29.2027 33.5515 29.2026 34.0092 28.7447L38.2831 24.468C38.9293 23.8218 39.2919 22.9682 39.311 22.0574C39.3114 22.0453 39.3128 22.0334 39.3128 22.0211V9.76914C39.3128 9.11031 39.8243 8.56109 40.453 8.54492C40.7706 8.53624 41.0742 8.6546 41.3025 8.87695C41.5308 9.09953 41.6566 9.39766 41.6566 9.71641V22.9114Z" fill="#4640DE" stroke="#4640DE" stroke-width="0.5"/>
<path d="M15.8337 14.3305C15.8838 14.3849 16.0563 14.5549 19.3398 17.7566C21.0523 19.4266 22.9919 21.3179 23.1481 21.4754C23.3688 21.705 23.6737 21.8352 23.9929 21.8352C24.3165 21.8353 24.6256 21.7014 24.8469 21.4659C25.014 21.2939 26.8072 19.5484 28.3902 18.0074C31.1617 15.3094 32.0424 14.4503 32.1526 14.3307C32.1779 14.3033 32.2018 14.2748 32.224 14.2455C36.0121 9.43712 32.5622 4.03856 27.6726 4.01536C26.3456 4.03583 25.0869 4.49146 23.981 5.34349C21.1333 3.18848 18.0001 3.88778 16.1458 5.60232C13.6445 7.88742 13.5204 11.7039 15.7994 14.2916C15.8105 14.3048 15.8219 14.3178 15.8337 14.3305ZM17.7372 7.32312C18.9305 6.21944 21.0696 5.66568 23.1702 7.73711C23.3929 7.95672 23.6954 8.07789 24.007 8.07445C24.3197 8.0707 24.6181 7.94211 24.8355 7.71726C26.1362 6.37194 28.385 5.67279 30.2486 7.31617C31.4664 8.39016 32.233 10.4575 30.4088 12.7627C30.1144 13.0582 28.2588 14.8646 26.7553 16.3281C25.4285 17.6197 24.5513 18.474 23.9917 19.0206C23.1936 18.2394 18.1648 13.3402 17.562 12.7459C16.3698 11.3025 15.9198 9.00384 17.7372 7.32312Z" fill="#4640DE" stroke="#4640DE" stroke-width="0.5"/>
</svg>
